<?xml version="1.0" encoding="UTF-8" standalone="no"?>
<!-- Created with Inkscape (http://www.inkscape.org/) -->

<svg
   xmlns:dc="http://purl.org/dc/elements/1.1/"
   xmlns:cc="http://creativecommons.org/ns#"
   xmlns:rdf="http://www.w3.org/1999/02/22-rdf-syntax-ns#"
   xmlns:svg="http://www.w3.org/2000/svg"
   xmlns="http://www.w3.org/2000/svg"
   xmlns:sodipodi="http://sodipodi.sourceforge.net/DTD/sodipodi-0.dtd"
   xmlns:inkscape="http://www.inkscape.org/namespaces/inkscape"
   width="6.5cm"
   height="1.28cm"
   viewBox="0 0 230.31497 45.354329"
   id="svg5018"
   version="1.1"
   inkscape:version="0.91 r13725"
   sodipodi:docname="maliLogo.svg"
   inkscape:export-filename="C:\wamp64\www\FROMBIH\public\Slike\maliLogo.png"
   inkscape:export-xdpi="90"
   inkscape:export-ydpi="90">
  <defs
     id="defs5020" />
  <sodipodi:namedview
     id="base"
     pagecolor="#ffffff"
     bordercolor="#030303"
     borderopacity="1"
     inkscape:pageopacity="0.0"
     inkscape:pageshadow="2"
     inkscape:zoom="1.979899"
     inkscape:cx="171.26711"
     inkscape:cy="-28.664885"
     inkscape:document-units="px"
     inkscape:current-layer="g5594"
     showgrid="false"
     units="cm"
     inkscape:window-width="1366"
     inkscape:window-height="705"
     inkscape:window-x="-8"
     inkscape:window-y="-8"
     inkscape:window-maximized="1"
     borderlayer="true" />
  <metadata
     id="metadata5023">
    <rdf:RDF>
      <cc:Work
         rdf:about="">
        <dc:format>image/svg+xml</dc:format>
        <dc:type
           rdf:resource="http://purl.org/dc/dcmitype/StillImage" />
        <dc:title></dc:title>
      </cc:Work>
    </rdf:RDF>
  </metadata>
  <g
     inkscape:label="Layer 1"
     inkscape:groupmode="layer"
     id="layer1"
     transform="translate(0,-1007.0079)">
    <g
       id="g5594"
       transform="translate(-315.86121,323.41625)">
      <path
         sodipodi:nodetypes="ccsccccccccscccccc"
         inkscape:connector-curvature="0"
         id="path4174-0-8-3-2-9"
         d="m 374.91728,685.64611 -13.45704,23.31054 c -6.22743,-2.26282 -10.99203,-3.07652 -15.45117,-1.95508 -4.26256,1.07201 -8.10081,3.90379 -12.72265,7.72657 l -10.42579,-15.60938 c -1.71888,-2.70633 -5.74888,-0.0156 -3.9082,2.60938 l 10.66992,15.97461 1.81195,2.8764 0,0 0.94039,1.36946 3.52891,-3.3025 c 4.61807,-3.81766 8.07063,-6.28586 11.25196,-7.08594 3.59046,-0.90298 7.6071,-0.2654 14.50586,2.44531 l 1.88281,0.74024 14.08789,-24.4004 24.35742,0 c 3.20619,0.0743 3.20619,-4.77346 0,-4.69921 z"
         style="color:#000000;font-style:normal;font-variant:normal;font-weight:normal;font-stretch:normal;font-size:medium;line-height:normal;font-family:sans-serif;text-indent:0;text-align:start;text-decoration:none;text-decoration-line:none;text-decoration-style:solid;text-decoration-color:#000000;letter-spacing:normal;word-spacing:normal;text-transform:none;direction:ltr;block-progression:tb;writing-mode:lr-tb;baseline-shift:baseline;text-anchor:start;white-space:normal;clip-rule:nonzero;display:inline;overflow:visible;visibility:visible;opacity:1;isolation:auto;mix-blend-mode:normal;color-interpolation:sRGB;color-interpolation-filters:linearRGB;solid-color:#000000;solid-opacity:1;fill:#45cb1a;fill-opacity:0.99607843;fill-rule:evenodd;stroke:#44cb1a;stroke-width:2;stroke-linecap:round;stroke-linejoin:miter;stroke-miterlimit:4;stroke-dasharray:none;stroke-dashoffset:0;stroke-opacity:0.99607843;color-rendering:auto;image-rendering:auto;shape-rendering:auto;text-rendering:auto;enable-background:accumulate" />
      <circle
         r="3.5102251"
         cy="724.14026"
         cx="340.24936"
         id="path4186-7-2-9-7-9"
         style="opacity:1;fill:#45cb1a;fill-opacity:0.99607843;stroke:#44cb1a;stroke-width:2;stroke-linecap:butt;stroke-linejoin:miter;stroke-miterlimit:4;stroke-dasharray:none;stroke-dashoffset:0;stroke-opacity:0.99607843" />
      <circle
         r="3.5102251"
         cy="719.26434"
         cx="356.45822"
         id="path4186-7-0-1-6-8-8"
         style="opacity:1;fill:#45cb1a;fill-opacity:0.99607843;stroke:#44cb1a;stroke-width:2;stroke-linecap:butt;stroke-linejoin:miter;stroke-miterlimit:4;stroke-dasharray:none;stroke-dashoffset:0;stroke-opacity:0.99607843" />
      <path
         d="m 411.22097,698.58022 q 1.36,0.88 2.32,2.2 l -2.32,1.84 -0.88,0.72 q -0.68,-1 -1.8,-1.6 -1.08,-0.6 -2.36,-0.6 -1.04,0 -1.96,0.4 -0.92,0.4 -1.6,1.08 -0.68,0.68 -1.08,1.6 -0.4,0.92 -0.4,1.96 l 0,7.6 0,4.28 -4.08,0 0,-11.88 0,-9.12 4.08,0 0,1.52 q 1.08,-0.72 2.36,-1.12 1.28,-0.4 2.68,-0.4 1.4,0 2.68,0.4 1.28,0.4 2.36,1.12 z"
         style="font-style:normal;font-variant:normal;font-weight:normal;font-stretch:normal;font-size:medium;line-height:125%;font-family:'Aqua Grotesque';-inkscape-font-specification:'Aqua Grotesque';letter-spacing:0px;word-spacing:0px;fill:#000000;fill-opacity:1;stroke:#000000;stroke-width:1px;stroke-linecap:butt;stroke-linejoin:miter;stroke-opacity:1"
         id="path4773"
         inkscape:connector-curvature="0" />
      <path
         d="m 426.16785,696.98022 q 2.2,0 4.12,0.84 1.92,0.8 3.36,2.24 1.44,1.44 2.24,3.36 0.84,1.92 0.84,4.12 0,2.2 -0.84,4.12 -0.8,1.92 -2.24,3.36 -1.44,1.44 -3.36,2.28 -1.92,0.8 -4.12,0.8 -2.2,0 -4.12,-0.8 -1.92,-0.84 -3.36,-2.28 -1.44,-1.44 -2.28,-3.36 -0.8,-1.92 -0.8,-4.12 0,-2.2 0.8,-4.12 0.84,-1.92 2.28,-3.36 1.44,-1.44 3.36,-2.24 1.92,-0.84 4.12,-0.84 z m 0,17 q 1.32,0 2.48,-0.48 1.2,-0.52 2.08,-1.4 0.88,-0.88 1.36,-2.04 0.52,-1.2 0.52,-2.52 0,-1.32 -0.52,-2.48 -0.48,-1.2 -1.36,-2.08 -0.88,-0.88 -2.08,-1.36 -1.16,-0.52 -2.48,-0.52 -1.32,0 -2.52,0.52 -1.16,0.48 -2.04,1.36 -0.88,0.88 -1.4,2.08 -0.52,1.16 -0.52,2.48 0,1.32 0.52,2.52 0.52,1.16 1.4,2.04 0.88,0.88 2.04,1.4 1.2,0.48 2.52,0.48 z"
         style="font-style:normal;font-variant:normal;font-weight:normal;font-stretch:normal;font-size:medium;line-height:125%;font-family:'Aqua Grotesque';-inkscape-font-specification:'Aqua Grotesque';letter-spacing:0px;word-spacing:0px;fill:#000000;fill-opacity:1;stroke:#000000;stroke-width:1px;stroke-linecap:butt;stroke-linejoin:miter;stroke-opacity:1"
         id="path4775"
         inkscape:connector-curvature="0" />
      <path
         d="m 469.16464,698.42022 q 1.88,1.24 3,3.28 1.12,2 1.12,4.4 l 0,12.04 -4.12,0 0,-4.32 0,-7.72 q 0,-1.04 -0.4,-1.96 -0.4,-0.92 -1.12,-1.6 -0.68,-0.72 -1.6,-1.12 -0.92,-0.4 -1.96,-0.4 -1.04,0 -2,0.4 -0.92,0.4 -1.64,1.12 -0.68,0.68 -1.08,1.6 -0.4,0.92 -0.4,1.96 l 0,7.72 0,4.32 -4.12,0 0,-4.32 0,-7.72 q 0,-1.04 -0.4,-1.96 -0.4,-0.92 -1.12,-1.6 -0.68,-0.72 -1.6,-1.12 -0.92,-0.4 -1.96,-0.4 -1.04,0 -2,0.4 -0.92,0.4 -1.64,1.12 -0.68,0.68 -1.08,1.6 -0.4,0.92 -0.4,1.96 l 0,7.72 0,4.32 -4.12,0 0,-12.04 0,-9.2 4.12,0 0,1.52 q 1.12,-0.72 2.4,-1.12 1.32,-0.4 2.72,-0.4 1.4,0 2.68,0.4 1.32,0.4 2.4,1.12 1.16,0.76 2.08,1.92 0.88,-1.12 2.04,-1.92 1.12,-0.72 2.4,-1.12 1.32,-0.4 2.72,-0.4 1.4,0 2.68,0.4 1.32,0.4 2.4,1.12 z"
         style="font-style:normal;font-variant:normal;font-weight:normal;font-stretch:normal;font-size:medium;line-height:125%;font-family:'Aqua Grotesque';-inkscape-font-specification:'Aqua Grotesque';letter-spacing:0px;word-spacing:0px;fill:#000000;fill-opacity:1;stroke:#000000;stroke-width:1px;stroke-linecap:butt;stroke-linejoin:miter;stroke-opacity:1"
         id="path4777"
         inkscape:connector-curvature="0" />
      <path
         inkscape:connector-curvature="0"
         d="m 497.32385,703.78349 q 2.20467,1.20255 3.50743,3.50743 1.35286,2.25478 1.35286,5.16093 0,2.20467 -0.8518,4.15881 -0.8518,1.95414 -2.30488,3.45732 -1.45308,1.45308 -3.40722,2.30488 -1.95414,0.85181 -4.1588,0.85181 l -14.28021,0 0,-36.72779 14.02968,0 q 2.00424,0 3.80806,0.8017 1.80382,0.75159 3.15669,2.10446 1.35286,1.35286 2.10445,3.15668 0.8017,1.80382 0.8017,3.85817 0,1.25266 -0.35074,2.35499 -0.30064,1.05223 -0.85181,1.95414 -0.50106,0.90191 -1.20254,1.70361 -0.65138,0.75159 -1.35287,1.35286 z m -14.78127,-2.10445 7.76641,0 q 1.10234,0 2.05436,-0.40085 0.95201,-0.40085 1.6535,-1.10234 0.70148,-0.75159 1.10233,-1.70361 0.40085,-0.95201 0.40085,-2.00424 0,-2.25478 -1.50318,-3.75796 -1.50319,-1.50318 -3.70786,-1.50318 l -7.76641,0 0,10.47218 z m 8.01695,16.83565 q 1.25265,0 2.35498,-0.50106 1.10234,-0.50106 1.90404,-1.30276 0.8518,-0.8518 1.30275,-1.95414 0.50107,-1.10233 0.50107,-2.30488 0,-1.25265 -0.50107,-2.35499 -0.45095,-1.10233 -1.30275,-1.90403 -0.8017,-0.8518 -1.90404,-1.30276 -1.10233,-0.50106 -2.35498,-0.50106 l -8.01695,0 0,12.12568 8.01695,0 z"
         style="font-style:normal;font-variant:normal;font-weight:normal;font-stretch:normal;font-size:medium;line-height:125%;font-family:'Aqua Grotesque';-inkscape-font-specification:'Aqua Grotesque';letter-spacing:0px;word-spacing:0px;fill:#45cb1a;fill-opacity:0.99607843;stroke:#44cb1a;stroke-width:1.87897944;stroke-linecap:butt;stroke-linejoin:miter;stroke-miterlimit:4;stroke-dasharray:none;stroke-opacity:0.99607843"
         id="path4572-4-8-1-1-8" />
      <path
         d="m 507.09429,704.28455 6.0056,0 0,18.94012 -6.0056,0 z"
         style="font-style:normal;font-variant:normal;font-weight:normal;font-stretch:normal;font-size:medium;line-height:125%;font-family:'Aqua Grotesque';-inkscape-font-specification:'Aqua Grotesque';letter-spacing:0px;word-spacing:0px;fill:#45cb1a;fill-opacity:0.99607843;stroke:#44cb1a;stroke-width:1.87897944;stroke-linecap:butt;stroke-linejoin:miter;stroke-miterlimit:4;stroke-dasharray:none;stroke-opacity:0.99607843"
         id="path4574-0-4-6-2-3"
         inkscape:connector-curvature="0"
         sodipodi:nodetypes="ccccc" />
      <path
         d="m 538.93611,692.86036 0,-6.36348 5.36135,0 0,36.67768 -5.36135,0 0,-6.5639 0,-9.8208 -14.28025,0 0,9.8208 0,6.5639 -5.36135,0 0,-36.67768 5.36135,0 0,6.36348 0,4.40934 0,4.70997 0,0.10021 14.28025,0 0,-0.10021 0,-4.70997 0,-4.40934 z"
         style="font-style:normal;font-variant:normal;font-weight:normal;font-stretch:normal;font-size:medium;line-height:125%;font-family:'Aqua Grotesque';-inkscape-font-specification:'Aqua Grotesque';letter-spacing:0px;word-spacing:0px;fill:#45cb1a;fill-opacity:0.99607843;stroke:#44cb1a;stroke-width:2.0042448;stroke-linecap:butt;stroke-linejoin:miter;stroke-miterlimit:4;stroke-dasharray:none;stroke-opacity:0.99607843"
         id="path4576-3-2-7-5-0"
         inkscape:connector-curvature="0"
         sodipodi:nodetypes="cccccccccccccccccccccc" />
      <g
         transform="translate(161.60879,142.51744)"
         id="text4140-1-0-3-9-7-1"
         style="font-style:normal;font-variant:normal;font-weight:normal;font-stretch:normal;font-size:40px;line-height:125%;font-family:'Aqua Grotesque';-inkscape-font-specification:'Aqua Grotesque';letter-spacing:0px;word-spacing:0px;fill:#000000;fill-opacity:1;stroke:#000000;stroke-width:1px;stroke-linecap:butt;stroke-linejoin:miter;stroke-opacity:1">
        <path
           style="stroke:#000000;stroke-opacity:1"
           sodipodi:nodetypes="ccccccccccc"
           inkscape:connector-curvature="0"
           id="path4167-7-0-4-8-7"
           d="m 216.00662,575.58271 5.52364,0 0,-7.03906 0,-4.16015 10.91992,0 0,-4 -10.91992,0 0,-2.28126 0,-3.67968 0,-2.03906 -5.5238,-1.8e-4" />
      </g>
      <circle
         r="3.0478785"
         cy="695.18994"
         cx="510.09735"
         id="path4186-7-0-1-6-8-8-8"
         style="opacity:1;fill:#45cb1a;fill-opacity:0.99607843;stroke:#44cb1a;stroke-width:1.73657167;stroke-linecap:butt;stroke-linejoin:miter;stroke-miterlimit:4;stroke-dasharray:none;stroke-dashoffset:0;stroke-opacity:0.99607843" />
    </g>
  </g>
</svg>
